<?xml version="1.0" encoding="UTF-8" standalone="no"?>
<!-- Created with Inkscape (http://www.inkscape.org/) -->

<svg
   width="120"
   height="120"
   viewBox="0 0 120 120"
   version="1.1"
   id="svg1"
   inkscape:version="1.4.1 (93de688d07, 2025-03-30)"
   sodipodi:docname="empty.svg"
   xmlns:inkscape="http://www.inkscape.org/namespaces/inkscape"
   xmlns:sodipodi="http://sodipodi.sourceforge.net/DTD/sodipodi-0.dtd"
   xmlns="http://www.w3.org/2000/svg"
   xmlns:svg="http://www.w3.org/2000/svg">
  <sodipodi:namedview
     id="namedview1"
     pagecolor="#505050"
     bordercolor="#ffffff"
     borderopacity="1"
     inkscape:showpageshadow="0"
     inkscape:pageopacity="0"
     inkscape:pagecheckerboard="1"
     inkscape:deskcolor="#505050"
     inkscape:document-units="px"
     inkscape:zoom="4"
     inkscape:cx="67.25"
     inkscape:cy="44.125"
     inkscape:window-width="2548"
     inkscape:window-height="1402"
     inkscape:window-x="0"
     inkscape:window-y="0"
     inkscape:window-maximized="1"
     inkscape:current-layer="layer1" />
  <defs
     id="defs1" />
  <g
     inkscape:label="Layer 1"
     inkscape:groupmode="layer"
     id="layer1">
    <path
       id="path1"
       style="fill:#6e6a86;fill-opacity:1"
       d="M 59.996094 0 A 59.992279 60 0 0 0 0.0078125 60.001953 A 59.992279 60 0 0 0 60.001953 120 A 59.992279 60 0 0 0 119.99219 60 L 113.99219 60 A 53.99305 54 0 0 1 60.001953 114 A 53.99305 54 0 0 1 6.0078125 60.001953 A 53.99305 54 0 0 1 59.996094 6 A 53.99305 54 0 0 1 113.99219 59.994141 L 119.99219 59.994141 A 59.992279 60 0 0 0 59.996094 0 z " />
  </g>
</svg>
